<svg id="Layer_1" data-name="Layer 1" xmlns="http://www.w3.org/2000/svg" viewBox="0 0 1344.65159 497.44019"><path d="M203.77735,148.85754c-10.81482-12.762-20.13269-25.8139-22.02478-28.49224a.426.426,0,0,0-.70032.00006c-1.89172,2.6784-11.20758,15.73022-22.022,28.49218-92.69141,118.085,14.62988,197.75507,14.62988,197.75507l.87.60461c.8136,12.32611,2.83508,30.041,2.83508,30.041H185.442s2.01288-17.63849,2.83-29.96112l.87549-.68445S296.46778,266.94257,203.77735,148.85754ZM181.40412,344.88123h-.001s-4.81128-4.10395-6.10968-6.1601l-.01178-.22125,5.81946-128.56055a.30284.30284,0,0,1,.605,0l5.81934,128.56036-.01129.22077C186.21644,340.77643,181.40412,344.88123,181.40412,344.88123Z" fill="#00684a"/><path d="M381.829,318.55865,337.268,210.002l-.127-.31055H302.392V216.961l5.57911.00879a6.33526,6.33526,0,0,1,6.32373,6.39844L313.2675,332.71587a6.30543,6.30543,0,0,1-6.20068,6.27051l-5.7085.06836v7.22656h33.81641v-7.22265l-3.48-.07129a6.36937,6.36937,0,0,1-6.20557-6.334V229.64068L374.1,346.20513a4.48481,4.48481,0,0,0,8.27832-.001l47.50147-113.99122.70752,100.417a6.34947,6.34947,0,0,1-6.25684,6.38086l-3.57178.04394v7.22656H460.3344v-7.22851l-5.41895-.042a6.36249,6.36249,0,0,1-6.25537-6.31348l-.34228-109.3291a6.3586,6.3586,0,0,1,6.23632-6.35547l5.78174-.05567v-7.26562H426.54094Z" fill="#00684a"/><path d="M693.39983,337.31646a5.8852,5.8852,0,0,1-1.69385-4.3916v-53.582c0-10.167-3.01709-18.20606-8.96826-23.89649-5.94629-5.68261-14.11133-8.56445-24.26709-8.56445-14.33985,0-25.60449,5.7959-33.481,17.22754a.65138.65138,0,0,1-1.168-.2041l-3.7041-14.31153h-6.19043l-15.93457,9.1211-.001,5.01855h4.11231a6.69905,6.69905,0,0,1,4.60547,1.51856,5.85166,5.85166,0,0,1,1.67431,4.56738v63.10547a5.80863,5.80863,0,0,1-6.08642,6.08594H598.311v7.2705h36.64062v-7.2705h-3.98632a5.80793,5.80793,0,0,1-6.08643-6.08594v-41.7666a38.67986,38.67986,0,0,1,3.44385-15.77735,31.24687,31.24687,0,0,1,10.20117-12.68066,26.56976,26.56976,0,0,1,16.07275-4.94043c7.02979,0,12.27247,2.21387,15.58155,6.58105,3.33838,4.41407,5.03125,10.11329,5.03125,16.9375v51.64649a5.80641,5.80641,0,0,1-6.085,6.08594h-3.98731v7.2705h36.6416v-7.2705h-3.98681A5.88219,5.88219,0,0,1,693.39983,337.31646Z" fill="#00684a"/><path d="M1029.12785,217.88482a71.48264,71.48264,0,0,0-33.93847-8.19336H947.14543V216.962h4.65479a7.8375,7.8375,0,0,1,7.24853,7.248V331.76177a6.952,6.952,0,0,1-2.2749,4.97364,6.8676,6.8676,0,0,1-4.97363,2.27539h-4.65479v7.2705h48.04395a71.48252,71.48252,0,0,0,33.93847-8.19336,61.78526,61.78526,0,0,0,24.50586-23.626c6.02246-10.22949,9.07618-22.502,9.07618-36.47656,0-13.97071-3.05372-26.24219-9.07618-36.47461A61.81,61.81,0,0,0,1029.12785,217.88482Zm14.374,60.10059c0,12.76855-2.29395,23.63867-6.81934,32.31054-4.51562,8.65137-10.54394,15.165-17.915,19.36133a48.61918,48.61918,0,0,1-24.35254,6.32715h-9.68554a6.86115,6.86115,0,0,1-4.97364-2.27539,6.94476,6.94476,0,0,1-2.27441-4.97363v-101.499a6.8669,6.8669,0,0,1,2.27441-4.97363,6.96359,6.96359,0,0,1,4.97364-2.27442H994.415a48.61918,48.61918,0,0,1,24.35254,6.32715c7.36817,4.19336,13.39551,10.707,17.915,19.36035C1041.20793,254.35162,1043.50188,265.22173,1043.50188,277.98541Z" fill="#00684a"/><path d="M1175.85149,285.21392c-4.36133-5.06152-12.86719-9.374-22.93457-11.66992,13.84472-6.873,20.8623-16.64746,20.8623-29.06836a31.33147,31.33147,0,0,0-5.41406-18.10352,35.90007,35.90007,0,0,0-15.21875-12.27832,55.03736,55.03736,0,0,0-22.67383-4.40234H1076.582V216.962h4.26757a7.83542,7.83542,0,0,1,7.24805,7.248V331.76177a6.95524,6.95524,0,0,1-2.27441,4.97364,6.86762,6.86762,0,0,1-4.97364,2.27539h-4.65527v7.2705h58.50488a66.18011,66.18011,0,0,0,24.68848-4.49121,40.798,40.798,0,0,0,17.84082-13.2373c4.37207-5.8086,6.58887-12.916,6.58887-21.124A33.03684,33.03684,0,0,0,1175.85149,285.21392Zm-67.0459,48.49512a6.94762,6.94762,0,0,1-2.27539-4.97363v-48.3125h27.78125c9.75976,0,17.334,2.52734,22.50976,7.51171,5.168,4.98047,7.78809,11.54,7.78809,19.49414a29.60114,29.60114,0,0,1-3.42969,13.8125,26.80127,26.80127,0,0,1-10.27344,10.64942c-4.54492,2.71582-10.1289,4.09375-16.59472,4.09375h-20.53223A6.86115,6.86115,0,0,1,1108.80559,333.709Zm-2.27539-63.583V227.23638a6.8676,6.8676,0,0,1,2.27539-4.97363,6.96357,6.96357,0,0,1,4.97363-2.27442h13.20606c9.49218,0,16.53906,2.3584,20.94336,7.01075,4.4082,4.66113,6.64355,10.7373,6.64355,18.05859,0,7.582-2.07422,13.72559-6.166,18.25977-4.08007,4.51757-10.30957,6.80859-18.51562,6.80859Z" fill="#00684a"/><path d="M553.8925,253.23833a54.78868,54.78868,0,0,0-51.23144.001,47.34153,47.34153,0,0,0-18.30274,18.00684,56.14574,56.14574,0,0,0,0,53.38183,47.31,47.31,0,0,0,18.30274,18.00879,54.78865,54.78865,0,0,0,51.23144-.001A47.30644,47.30644,0,0,0,572.19475,324.628a56.14215,56.14215,0,0,0,0-53.38183A47.35307,47.35307,0,0,0,553.8925,253.23833Zm7.395,44.69922c0,12.34766-3.02441,22.27637-8.98974,29.51075-5.94336,7.20605-14.02539,10.86035-24.021,10.86035-9.99853,0-18.08008-3.6543-24.02051-10.86035-5.96484-7.23047-8.98926-17.15918-8.98926-29.51075s3.02442-22.28027,8.98926-29.51172c5.93994-7.20605,14.02149-10.85937,24.02051-10.85937,9.99609,0,18.07813,3.65332,24.021,10.85937C558.26311,275.66119,561.28752,285.5899,561.28752,297.93755Z" fill="#00684a"/><path d="M906.82463,253.23833a54.78868,54.78868,0,0,0-51.23144.001,47.34153,47.34153,0,0,0-18.30274,18.00684,56.14574,56.14574,0,0,0,0,53.38183,47.31,47.31,0,0,0,18.30274,18.00879,54.78865,54.78865,0,0,0,51.23144-.001A47.30644,47.30644,0,0,0,925.12688,324.628a56.14574,56.14574,0,0,0,0-53.38183A47.35307,47.35307,0,0,0,906.82463,253.23833Zm7.395,44.69922c0,12.34766-3.02441,22.27637-8.98974,29.51075-5.94336,7.20605-14.0254,10.86035-24.021,10.86035-9.99854,0-18.08008-3.6543-24.02051-10.86035-5.96533-7.23047-8.98974-17.15918-8.98974-29.51075,0-12.35058,3.02441-22.28027,8.98974-29.51172,5.93994-7.20605,14.02149-10.85937,24.02051-10.85937,9.99609,0,18.07812,3.65332,24.021,10.85937C911.19524,275.66119,914.21965,285.5899,914.21965,297.93755Z" fill="#00684a"/><path d="M764.36907,246.88189a47.24308,47.24308,0,0,0-21.87207,5.08789A39.55411,39.55411,0,0,0,727.00334,265.835a35.07131,35.07131,0,0,0-5.61621,19.19532,33.87906,33.87906,0,0,0,4.29395,16.957,37.5086,37.5086,0,0,0,11.40283,12.35644l-14.25244,19.374A7.88871,7.88871,0,0,0,729.186,346.2813h4.09375a30.82784,30.82784,0,0,0-9.40381,9.66016,25.78546,25.78546,0,0,0-3.89844,13.44629c0,8.585,3.79639,15.66406,11.28321,21.042,7.43408,5.33984,17.82812,8.04688,30.89209,8.04688a74.99565,74.99565,0,0,0,25.74218-4.35938,45.94622,45.94622,0,0,0,19.332-12.82519,29.89344,29.89344,0,0,0,7.37011-20.15918c0-8.18262-3.00146-14.03809-10.03662-19.57911-6.01953-4.73437-15.39258-7.2373-27.10449-7.2373h-40.0083a.25509.25509,0,0,1-.2124-.39648l10.38281-14.042a37.017,37.017,0,0,0,7.69336,2.58594,41.16921,41.16921,0,0,0,8.05078.71484,49.19541,49.19541,0,0,0,22.57422-5.08691,40.11878,40.11878,0,0,0,15.69336-13.86328,34.64317,34.64317,0,0,0,5.71924-19.19824c0-7.41895-3.5586-20.92774-13.38428-27.81641.02588-.06934.07568-.06543.0918-.06055l21.54785,2.41016v-9.86328h-34.4419A50.99092,50.99092,0,0,0,764.36907,246.88189Zm12.04443,62.57129H776.413a25.30833,25.30833,0,0,1-12.04394,3.06152,24.84,24.84,0,0,1-17.57618-7.11133c-4.97168-4.707-7.49267-11.5625-7.49267-20.373s2.521-15.666,7.49267-20.374a24.84734,24.84734,0,0,1,17.57618-7.11035A25.34981,25.34981,0,0,1,776.413,260.6065a24.2708,24.2708,0,0,1,9.37061,9.17676c2.4248,4.06543,3.65429,9.19531,3.65429,15.24707,0,6.05468-1.22949,11.18457-3.65429,15.24609A24.21122,24.21122,0,0,1,776.4135,309.45318ZM749.24992,346.2813h27.11231c7.53125,0,12.32129,1.46,15.53223,4.7334a17.22153,17.22153,0,0,1,4.78955,12.53418A21.6614,21.6614,0,0,1,788.0175,381.376c-5.78906,4.53809-13.61035,6.83887-23.24609,6.83887-8.44385,0-15.35791-1.86524-20.54932-5.54492-5.13623-3.64063-7.74072-9.05762-7.74072-16.10059a21.27324,21.27324,0,0,1,3.63818-12.10254A23.3766,23.3766,0,0,1,749.24992,346.2813Z" fill="#00684a"/><path d="M1204.2109,345.06934a12.34326,12.34326,0,0,1-4.67285-4.6377,13.17237,13.17237,0,0,1,0-12.894,12.34672,12.34672,0,0,1,4.67285-4.6377,14.06434,14.06434,0,0,1,13.4209,0,12.33983,12.33983,0,0,1,4.67285,4.6377,13.16563,13.16563,0,0,1,0,12.894,12.33636,12.33636,0,0,1-4.67285,4.6377,14.0679,14.0679,0,0,1-13.4209,0Zm12.2793-1.47559a10.19654,10.19654,0,0,0,3.88281-3.93506,12.15768,12.15768,0,0,0,0-11.34814,10.19986,10.19986,0,0,0-3.88281-3.93506,11.60738,11.60738,0,0,0-11.13672,0,10.19314,10.19314,0,0,0-3.88281,3.93506,12.15775,12.15775,0,0,0,0,11.34814,10.18983,10.18983,0,0,0,3.88281,3.93506,11.60738,11.60738,0,0,0,11.13672,0Zm-10.97949-3.49609v-.87842l.17578-.14014h.59766a.78274.78274,0,0,0,.7373-.73779v-9.27539a.78276.78276,0,0,0-.7373-.7378h-.59766l-.17578-.14062v-.87842l.17578-.14062h5.20019a5.69368,5.69368,0,0,1,3.51368.98388,3.31647,3.31647,0,0,1,1.2998,2.81055,3.396,3.396,0,0,1-1.002,2.4419,4.2143,4.2143,0,0,1-2.54688,1.24707l1.19434.35156,2.31934,3.65381a.79967.79967,0,0,0,.667.42187h.59765l.14063.14014v.87842l-.14063.14062H1213.873l-.21093-.14062-3.23243-5.37549h-.77246v3.61914a.78478.78478,0,0,0,.73731.73779h.59765l.17578.14014v.87842l-.17578.14062h-5.30566Zm5.02441-6.53467a2.56691,2.56691,0,0,0,1.89746-.66748,2.61949,2.61949,0,0,0,.667-1.93262,2.79653,2.79653,0,0,0-.63184-1.91455,2.13468,2.13468,0,0,0-1.68652-.72022h-.38672a.7848.7848,0,0,0-.73731.7378V333.563Z" fill="#00684a"/></svg>